<mxfile host="app.diagrams.net" agent="Mozilla/5.0 (Windows NT 10.0; Win64; x64) AppleWebKit/537.36 (KHTML, like Gecko) Chrome/130.0.0.0 Safari/537.36 Edg/130.0.0.0" version="24.8.4">
  <diagram name="Page-1" id="2YBvvXClWsGukQMizWep">
    <mxGraphModel dx="1072" dy="588" grid="1" gridSize="10" guides="1" tooltips="1" connect="1" arrows="1" fold="1" page="1" pageScale="1" pageWidth="850" pageHeight="1100" math="0" shadow="0">
      <root>
        <mxCell id="0" />
        <mxCell id="1" parent="0" />
        <mxCell id="aM9ryv3xv72pqoxQDRHE-1" value="小程序" style="shape=umlLifeline;perimeter=lifelinePerimeter;whiteSpace=wrap;html=1;container=0;dropTarget=0;collapsible=0;recursiveResize=0;outlineConnect=0;portConstraint=eastwest;newEdgeStyle={&quot;edgeStyle&quot;:&quot;elbowEdgeStyle&quot;,&quot;elbow&quot;:&quot;vertical&quot;,&quot;curved&quot;:0,&quot;rounded&quot;:0};" parent="1" vertex="1">
          <mxGeometry x="40" y="40" width="100" height="440" as="geometry" />
        </mxCell>
        <mxCell id="aM9ryv3xv72pqoxQDRHE-2" value="" style="html=1;points=[];perimeter=orthogonalPerimeter;outlineConnect=0;targetShapes=umlLifeline;portConstraint=eastwest;newEdgeStyle={&quot;edgeStyle&quot;:&quot;elbowEdgeStyle&quot;,&quot;elbow&quot;:&quot;vertical&quot;,&quot;curved&quot;:0,&quot;rounded&quot;:0};" parent="aM9ryv3xv72pqoxQDRHE-1" vertex="1">
          <mxGeometry x="45" y="70" width="10" height="340" as="geometry" />
        </mxCell>
        <mxCell id="aM9ryv3xv72pqoxQDRHE-3" value="活动度测试" style="html=1;verticalAlign=bottom;startArrow=oval;endArrow=block;startSize=8;edgeStyle=elbowEdgeStyle;elbow=vertical;curved=0;rounded=0;" parent="aM9ryv3xv72pqoxQDRHE-1" target="aM9ryv3xv72pqoxQDRHE-2" edge="1">
          <mxGeometry relative="1" as="geometry">
            <mxPoint x="-15" y="70" as="sourcePoint" />
          </mxGeometry>
        </mxCell>
        <mxCell id="HZUrijzoaSzUp7FHq8ut-8" value="" style="edgeStyle=elbowEdgeStyle;rounded=0;orthogonalLoop=1;jettySize=auto;html=1;elbow=vertical;curved=0;dashed=1;" edge="1" parent="1" source="aM9ryv3xv72pqoxQDRHE-5" target="HZUrijzoaSzUp7FHq8ut-2">
          <mxGeometry relative="1" as="geometry">
            <mxPoint x="280.05" y="250" as="sourcePoint" />
            <mxPoint x="439.95" y="250" as="targetPoint" />
            <Array as="points">
              <mxPoint x="369.95" y="250" />
            </Array>
          </mxGeometry>
        </mxCell>
        <mxCell id="aM9ryv3xv72pqoxQDRHE-5" value="服务端" style="shape=umlLifeline;perimeter=lifelinePerimeter;whiteSpace=wrap;html=1;container=0;dropTarget=0;collapsible=0;recursiveResize=0;outlineConnect=0;portConstraint=eastwest;newEdgeStyle={&quot;edgeStyle&quot;:&quot;elbowEdgeStyle&quot;,&quot;elbow&quot;:&quot;vertical&quot;,&quot;curved&quot;:0,&quot;rounded&quot;:0};" parent="1" vertex="1">
          <mxGeometry x="220" y="40" width="100" height="440" as="geometry" />
        </mxCell>
        <mxCell id="aM9ryv3xv72pqoxQDRHE-7" value="上传视频到服务端" style="html=1;verticalAlign=bottom;endArrow=block;edgeStyle=elbowEdgeStyle;elbow=vertical;curved=0;rounded=0;entryX=0;entryY=0;entryDx=0;entryDy=0;" parent="1" source="aM9ryv3xv72pqoxQDRHE-2" target="HZUrijzoaSzUp7FHq8ut-40" edge="1">
          <mxGeometry x="0.0024" relative="1" as="geometry">
            <mxPoint x="195" y="130" as="sourcePoint" />
            <Array as="points">
              <mxPoint x="180" y="120" />
            </Array>
            <mxPoint x="260" y="120" as="targetPoint" />
            <mxPoint as="offset" />
          </mxGeometry>
        </mxCell>
        <mxCell id="aM9ryv3xv72pqoxQDRHE-9" value="上传成功" style="html=1;verticalAlign=bottom;endArrow=block;edgeStyle=elbowEdgeStyle;elbow=vertical;curved=0;rounded=0;dashed=1;" parent="1" source="aM9ryv3xv72pqoxQDRHE-5" target="aM9ryv3xv72pqoxQDRHE-2" edge="1">
          <mxGeometry relative="1" as="geometry">
            <mxPoint x="265" y="189.8" as="sourcePoint" />
            <Array as="points">
              <mxPoint x="190" y="189.8" />
            </Array>
            <mxPoint x="100" y="189.8" as="targetPoint" />
          </mxGeometry>
        </mxCell>
        <mxCell id="HZUrijzoaSzUp7FHq8ut-4" value="" style="edgeStyle=elbowEdgeStyle;rounded=0;orthogonalLoop=1;jettySize=auto;html=1;elbow=horizontal;curved=0;entryX=0.75;entryY=0;entryDx=0;entryDy=0;" edge="1" parent="1" source="HZUrijzoaSzUp7FHq8ut-2" target="HZUrijzoaSzUp7FHq8ut-28">
          <mxGeometry relative="1" as="geometry">
            <mxPoint x="440" y="220" as="sourcePoint" />
            <mxPoint x="280" y="220" as="targetPoint" />
            <Array as="points">
              <mxPoint x="280" y="220" />
            </Array>
          </mxGeometry>
        </mxCell>
        <mxCell id="HZUrijzoaSzUp7FHq8ut-1" value="计算主机" style="shape=umlLifeline;perimeter=lifelinePerimeter;whiteSpace=wrap;html=1;container=0;dropTarget=0;collapsible=0;recursiveResize=0;outlineConnect=0;portConstraint=eastwest;newEdgeStyle={&quot;edgeStyle&quot;:&quot;elbowEdgeStyle&quot;,&quot;elbow&quot;:&quot;vertical&quot;,&quot;curved&quot;:0,&quot;rounded&quot;:0};" vertex="1" parent="1">
          <mxGeometry x="400" y="40" width="100" height="440" as="geometry" />
        </mxCell>
        <mxCell id="HZUrijzoaSzUp7FHq8ut-2" value="" style="html=1;points=[];perimeter=orthogonalPerimeter;outlineConnect=0;targetShapes=umlLifeline;portConstraint=eastwest;newEdgeStyle={&quot;edgeStyle&quot;:&quot;elbowEdgeStyle&quot;,&quot;elbow&quot;:&quot;vertical&quot;,&quot;curved&quot;:0,&quot;rounded&quot;:0};" vertex="1" parent="HZUrijzoaSzUp7FHq8ut-1">
          <mxGeometry x="45" y="180" width="10" height="192" as="geometry" />
        </mxCell>
        <mxCell id="HZUrijzoaSzUp7FHq8ut-21" value="" style="edgeStyle=none;orthogonalLoop=1;jettySize=auto;html=1;rounded=0;" edge="1" parent="HZUrijzoaSzUp7FHq8ut-1">
          <mxGeometry width="100" relative="1" as="geometry">
            <mxPoint x="55" y="290" as="sourcePoint" />
            <mxPoint x="55" y="310" as="targetPoint" />
            <Array as="points">
              <mxPoint x="80" y="290" />
              <mxPoint x="80" y="300" />
              <mxPoint x="80" y="310" />
            </Array>
          </mxGeometry>
        </mxCell>
        <mxCell id="HZUrijzoaSzUp7FHq8ut-7" value="查询任务" style="text;html=1;align=center;verticalAlign=middle;resizable=0;points=[];autosize=1;strokeColor=none;fillColor=none;" vertex="1" parent="1">
          <mxGeometry x="325" y="198" width="70" height="30" as="geometry" />
        </mxCell>
        <mxCell id="HZUrijzoaSzUp7FHq8ut-9" value="返回任务" style="text;html=1;align=center;verticalAlign=middle;resizable=0;points=[];autosize=1;strokeColor=none;fillColor=none;" vertex="1" parent="1">
          <mxGeometry x="325" y="228" width="70" height="30" as="geometry" />
        </mxCell>
        <mxCell id="HZUrijzoaSzUp7FHq8ut-13" value="" style="edgeStyle=elbowEdgeStyle;rounded=0;orthogonalLoop=1;jettySize=auto;html=1;elbow=vertical;curved=0;dashed=1;" edge="1" parent="1" target="HZUrijzoaSzUp7FHq8ut-2">
          <mxGeometry relative="1" as="geometry">
            <mxPoint x="270" y="310" as="sourcePoint" />
            <mxPoint x="439.95" y="310" as="targetPoint" />
            <Array as="points">
              <mxPoint x="369.95" y="310" />
            </Array>
          </mxGeometry>
        </mxCell>
        <mxCell id="HZUrijzoaSzUp7FHq8ut-14" value="" style="edgeStyle=elbowEdgeStyle;rounded=0;orthogonalLoop=1;jettySize=auto;html=1;elbow=horizontal;curved=0;" edge="1" parent="1" source="HZUrijzoaSzUp7FHq8ut-2">
          <mxGeometry relative="1" as="geometry">
            <mxPoint x="440" y="280" as="sourcePoint" />
            <mxPoint x="270.1" y="280.00000000000006" as="targetPoint" />
            <Array as="points">
              <mxPoint x="270" y="280" />
            </Array>
          </mxGeometry>
        </mxCell>
        <mxCell id="HZUrijzoaSzUp7FHq8ut-16" value="获取任务" style="text;html=1;align=center;verticalAlign=middle;resizable=0;points=[];autosize=1;strokeColor=none;fillColor=none;" vertex="1" parent="1">
          <mxGeometry x="325" y="258" width="70" height="30" as="geometry" />
        </mxCell>
        <mxCell id="HZUrijzoaSzUp7FHq8ut-17" value="下载文件" style="text;html=1;align=center;verticalAlign=middle;resizable=0;points=[];autosize=1;strokeColor=none;fillColor=none;" vertex="1" parent="1">
          <mxGeometry x="325" y="288" width="70" height="30" as="geometry" />
        </mxCell>
        <mxCell id="HZUrijzoaSzUp7FHq8ut-23" value="活动度计算" style="text;html=1;align=center;verticalAlign=middle;resizable=0;points=[];autosize=1;strokeColor=none;fillColor=none;" vertex="1" parent="1">
          <mxGeometry x="473" y="324" width="80" height="30" as="geometry" />
        </mxCell>
        <mxCell id="HZUrijzoaSzUp7FHq8ut-24" value="" style="edgeStyle=none;orthogonalLoop=1;jettySize=auto;html=1;rounded=0;" edge="1" parent="1">
          <mxGeometry width="100" relative="1" as="geometry">
            <mxPoint x="445" y="360" as="sourcePoint" />
            <mxPoint x="270.1" y="360" as="targetPoint" />
            <Array as="points" />
          </mxGeometry>
        </mxCell>
        <mxCell id="HZUrijzoaSzUp7FHq8ut-25" value="添加评估结果" style="text;html=1;align=center;verticalAlign=middle;resizable=0;points=[];autosize=1;strokeColor=none;fillColor=none;" vertex="1" parent="1">
          <mxGeometry x="310" y="338" width="100" height="30" as="geometry" />
        </mxCell>
        <mxCell id="HZUrijzoaSzUp7FHq8ut-26" value="" style="edgeStyle=elbowEdgeStyle;rounded=0;orthogonalLoop=1;jettySize=auto;html=1;elbow=vertical;curved=0;dashed=1;" edge="1" parent="1" source="HZUrijzoaSzUp7FHq8ut-30" target="HZUrijzoaSzUp7FHq8ut-2">
          <mxGeometry relative="1" as="geometry">
            <mxPoint x="272.5" y="412" as="sourcePoint" />
            <mxPoint x="447.5" y="412" as="targetPoint" />
            <Array as="points">
              <mxPoint x="372.45" y="412" />
            </Array>
          </mxGeometry>
        </mxCell>
        <mxCell id="HZUrijzoaSzUp7FHq8ut-27" value="成功" style="text;html=1;align=center;verticalAlign=middle;resizable=0;points=[];autosize=1;strokeColor=none;fillColor=none;" vertex="1" parent="1">
          <mxGeometry x="337.5" y="390" width="50" height="30" as="geometry" />
        </mxCell>
        <mxCell id="HZUrijzoaSzUp7FHq8ut-28" value="" style="rounded=0;whiteSpace=wrap;html=1;" vertex="1" parent="1">
          <mxGeometry x="265" y="220" width="10" height="30" as="geometry" />
        </mxCell>
        <mxCell id="HZUrijzoaSzUp7FHq8ut-29" value="" style="rounded=0;whiteSpace=wrap;html=1;" vertex="1" parent="1">
          <mxGeometry x="265" y="280" width="10" height="30" as="geometry" />
        </mxCell>
        <mxCell id="HZUrijzoaSzUp7FHq8ut-30" value="" style="rounded=0;whiteSpace=wrap;html=1;" vertex="1" parent="1">
          <mxGeometry x="265" y="360" width="10" height="52" as="geometry" />
        </mxCell>
        <mxCell id="HZUrijzoaSzUp7FHq8ut-32" value="" style="edgeStyle=none;orthogonalLoop=1;jettySize=auto;html=1;rounded=0;entryX=1;entryY=0.75;entryDx=0;entryDy=0;exitX=1;exitY=0.25;exitDx=0;exitDy=0;" edge="1" parent="1" source="HZUrijzoaSzUp7FHq8ut-30" target="HZUrijzoaSzUp7FHq8ut-30">
          <mxGeometry width="100" relative="1" as="geometry">
            <mxPoint x="240" y="380" as="sourcePoint" />
            <mxPoint x="340" y="380" as="targetPoint" />
            <Array as="points">
              <mxPoint x="300" y="373" />
              <mxPoint x="300" y="390" />
              <mxPoint x="300" y="400" />
            </Array>
          </mxGeometry>
        </mxCell>
        <mxCell id="HZUrijzoaSzUp7FHq8ut-33" value="生成评估报告" style="text;html=1;align=center;verticalAlign=middle;resizable=0;points=[];autosize=1;strokeColor=none;fillColor=none;" vertex="1" parent="1">
          <mxGeometry x="287.5" y="371" width="100" height="30" as="geometry" />
        </mxCell>
        <mxCell id="HZUrijzoaSzUp7FHq8ut-35" value="" style="edgeStyle=none;orthogonalLoop=1;jettySize=auto;html=1;rounded=0;exitX=1;exitY=0;exitDx=0;exitDy=0;" edge="1" parent="1" target="aM9ryv3xv72pqoxQDRHE-5">
          <mxGeometry width="100" relative="1" as="geometry">
            <mxPoint x="95" y="420" as="sourcePoint" />
            <mxPoint x="220" y="440" as="targetPoint" />
            <Array as="points" />
          </mxGeometry>
        </mxCell>
        <mxCell id="HZUrijzoaSzUp7FHq8ut-37" value="获取评估结果" style="text;html=1;align=center;verticalAlign=middle;resizable=0;points=[];autosize=1;strokeColor=none;fillColor=none;" vertex="1" parent="1">
          <mxGeometry x="125" y="398" width="100" height="30" as="geometry" />
        </mxCell>
        <mxCell id="HZUrijzoaSzUp7FHq8ut-38" value="" style="edgeStyle=none;orthogonalLoop=1;jettySize=auto;html=1;rounded=0;entryX=1;entryY=1;entryDx=0;entryDy=0;dashed=1;" edge="1" parent="1" source="aM9ryv3xv72pqoxQDRHE-5">
          <mxGeometry width="100" relative="1" as="geometry">
            <mxPoint x="150" y="460" as="sourcePoint" />
            <mxPoint x="95" y="450" as="targetPoint" />
            <Array as="points" />
          </mxGeometry>
        </mxCell>
        <mxCell id="HZUrijzoaSzUp7FHq8ut-39" value="返回评估报告" style="text;html=1;align=center;verticalAlign=middle;resizable=0;points=[];autosize=1;strokeColor=none;fillColor=none;" vertex="1" parent="1">
          <mxGeometry x="120" y="428" width="100" height="30" as="geometry" />
        </mxCell>
        <mxCell id="HZUrijzoaSzUp7FHq8ut-40" value="" style="rounded=0;whiteSpace=wrap;html=1;" vertex="1" parent="1">
          <mxGeometry x="265" y="120" width="10" height="70" as="geometry" />
        </mxCell>
        <mxCell id="HZUrijzoaSzUp7FHq8ut-41" value="" style="rounded=0;whiteSpace=wrap;html=1;" vertex="1" parent="1">
          <mxGeometry x="265" y="420" width="10" height="30" as="geometry" />
        </mxCell>
      </root>
    </mxGraphModel>
  </diagram>
</mxfile>
